<?xml version="1.0" standalone="no"?>
<!DOCTYPE svg PUBLIC "-//W3C//DTD SVG 20010904//EN"
 "http://www.w3.org/TR/2001/REC-SVG-20010904/DTD/svg10.dtd">
<svg version="1.0" xmlns="http://www.w3.org/2000/svg"
 width="1024.000000pt" height="1024.000000pt" viewBox="0 0 1024.000000 1024.000000"
 preserveAspectRatio="xMidYMid meet">
<metadata>
Created by potrace 1.11, written by Peter Selinger 2001-2013
</metadata>
<g transform="translate(0.000000,1024.000000) scale(0.100000,-0.100000)"
fill="#000000" stroke="none">
<path d="M5007 10234 c-1 -1 -74 -4 -162 -7 -88 -4 -189 -9 -225 -12 -119 -9
-185 -15 -210 -19 -14 -2 -65 -10 -115 -16 -49 -6 -101 -14 -115 -16 -165 -27
-276 -48 -330 -60 -36 -9 -72 -17 -80 -19 -15 -4 -151 -34 -182 -40 -9 -2 -26
-9 -37 -15 -12 -6 -21 -8 -21 -6 0 3 -12 1 -27 -5 -16 -6 -35 -12 -43 -14 -30
-6 -326 -105 -342 -115 -10 -6 -23 -10 -30 -10 -19 0 -388 -161 -433 -188 -22
-14 -41 -25 -43 -24 -9 7 -321 -167 -430 -239 -40 -27 -77 -49 -81 -49 -5 0
-11 -3 -13 -7 -1 -5 -48 -39 -103 -76 -108 -73 -228 -161 -285 -207 -19 -16
-50 -41 -69 -57 -220 -179 -466 -419 -616 -597 -28 -33 -61 -71 -74 -85 -52
-57 -212 -272 -276 -371 -37 -58 -76 -117 -86 -132 -11 -15 -19 -29 -19 -32 0
-3 -21 -40 -46 -83 -116 -196 -256 -522 -332 -773 -41 -135 -95 -350 -106
-425 -4 -22 -13 -78 -21 -125 -8 -47 -17 -111 -20 -142 -3 -32 -7 -83 -10
-113 -16 -161 -23 -550 -11 -665 3 -30 8 -91 11 -135 3 -44 8 -91 10 -105 5
-29 14 -83 20 -120 18 -123 17 -116 45 -239 48 -217 127 -473 186 -608 8 -17
14 -34 14 -37 0 -11 99 -222 139 -296 10 -19 24 -46 30 -60 30 -64 164 -285
262 -432 84 -125 277 -372 375 -478 173 -188 450 -446 614 -571 46 -35 94 -72
105 -82 11 -11 46 -37 77 -58 133 -91 217 -205 253 -344 17 -64 17 -196 -1
-310 -7 -49 -16 -110 -19 -135 -3 -25 -7 -56 -9 -70 -5 -31 -15 -102 -21 -154
-3 -22 -7 -51 -9 -65 -7 -40 -15 -101 -21 -151 -3 -25 -8 -56 -10 -70 -2 -14
-7 -45 -10 -70 -9 -71 -16 -123 -20 -150 -2 -14 -7 -50 -10 -80 -4 -30 -9 -62
-10 -71 -2 -9 -6 -40 -10 -69 -4 -29 -9 -62 -11 -74 -16 -80 -15 -177 1 -229
18 -57 76 -142 110 -161 10 -6 25 -17 33 -23 37 -34 89 -36 901 -37 l804 -1 1
591 1 590 24 36 c38 55 69 61 297 61 231 0 261 -8 294 -73 18 -36 19 -66 20
-616 0 -318 3 -580 6 -583 8 -8 1265 -7 1270 0 2 4 4 266 4 583 1 599 1 607
43 649 34 34 69 39 278 39 197 1 209 -1 247 -22 73 -41 71 -25 72 -671 0 -315
3 -575 6 -578 9 -9 1554 -8 1604 1 86 16 176 76 212 143 42 78 49 124 34 225
-16 109 -19 128 -31 225 -3 22 -7 51 -10 65 -2 14 -7 49 -10 79 -4 30 -8 61
-10 70 -1 9 -6 45 -10 81 -4 36 -8 67 -10 70 -1 3 -6 30 -9 61 -4 31 -8 65
-10 75 -2 11 -7 46 -11 79 -4 33 -9 69 -11 80 -1 11 -12 92 -24 180 -11 88
-23 171 -26 185 -14 65 -13 247 2 300 39 140 126 256 254 340 13 8 37 27 54
41 17 14 47 36 66 49 19 13 42 32 51 42 9 10 20 18 25 18 5 0 27 17 50 38 23
20 63 55 89 77 151 125 435 407 540 536 66 81 110 135 116 139 11 10 236 331
281 402 79 126 185 328 280 537 39 86 125 316 156 416 56 182 129 493 137 585
1 8 4 31 8 50 4 19 9 62 12 95 4 33 8 78 10 100 13 123 16 200 15 390 0 116
-2 226 -4 245 -2 19 -7 73 -10 120 -8 105 -22 208 -52 385 -9 52 -74 329 -84
355 -5 14 -21 66 -36 115 -60 200 -186 491 -299 695 -20 36 -50 90 -67 120
-17 30 -38 63 -46 73 -8 9 -20 26 -26 36 -54 96 -212 312 -316 431 -26 30 -64
75 -85 100 -84 102 -393 407 -495 489 -25 20 -50 41 -56 46 -47 42 -128 107
-234 185 -437 324 -843 545 -1312 715 -315 115 -700 218 -938 251 -19 2 -46 7
-60 10 -37 9 -56 11 -160 24 -52 6 -106 13 -120 16 -54 9 -179 18 -385 30
-104 5 -433 12 -438 8z m-1632 -3849 c28 -4 59 -8 70 -10 12 -1 50 -10 85 -20
36 -9 72 -18 81 -20 9 -2 25 -8 35 -14 11 -5 53 -26 94 -46 85 -40 90 -43 180
-105 109 -76 231 -195 319 -313 28 -37 51 -70 51 -72 0 -3 14 -28 32 -56 57
-93 107 -228 135 -367 17 -84 25 -339 12 -406 -4 -22 -10 -61 -14 -86 -13 -95
-112 -347 -157 -405 -4 -5 -29 -39 -55 -75 -41 -57 -76 -99 -149 -174 -69 -71
-274 -229 -274 -211 0 4 -13 -3 -28 -14 -45 -32 -165 -83 -226 -96 -10 -3 -33
-9 -50 -15 -61 -20 -233 -37 -346 -34 -226 5 -413 57 -605 169 -27 16 -54 33
-60 37 -106 82 -142 113 -209 182 -337 345 -447 779 -318 1252 47 172 174 378
327 529 267 265 561 387 920 379 55 -1 123 -5 150 -9z m3829 1 c140 -21 217
-42 316 -84 96 -41 188 -94 273 -160 84 -64 217 -197 267 -267 24 -33 46 -62
49 -65 11 -10 53 -86 93 -170 79 -165 111 -316 111 -520 -1 -130 -17 -253 -47
-355 -2 -5 -6 -23 -11 -40 -21 -82 -139 -296 -214 -387 -53 -66 -197 -203
-261 -250 -86 -63 -212 -138 -232 -138 -8 0 -18 -4 -23 -9 -6 -6 -45 -21 -87
-35 -237 -77 -519 -81 -763 -12 -179 52 -417 196 -533 325 -13 14 -40 44 -60
65 -20 22 -54 63 -74 90 -21 28 -41 56 -46 61 -20 24 -93 166 -115 225 -60
154 -79 258 -82 440 -3 180 26 355 81 477 8 17 14 35 14 40 0 9 109 205 119
213 3 3 19 23 36 45 72 98 188 211 300 292 171 124 375 202 570 219 39 4 71 8
73 9 5 4 205 -3 246 -9z"/>
</g>
</svg>
